<svg width="18" height="18" class="rotate" viewBox="0 0 1792 1792" xmlns="http://www.w3.org/2000/svg">
<title>Loading</title>
<style type="text/css">
svg {
    -webkit-animation-name: spin;
    -webkit-animation-duration: 2000ms;
    -webkit-animation-iteration-count: infinite;
    -webkit-animation-timing-function: linear;
    -moz-animation-name: spin;
    -moz-animation-duration: 2000ms;
    -moz-animation-iteration-count: infinite;
    -moz-animation-timing-function: linear;
    -ms-animation-name: spin;
    -ms-animation-duration: 2000ms;
    -ms-animation-iteration-count: infinite;
    -ms-animation-timing-function: linear;
    animation-name: spin;
    animation-duration: 2000ms;
    animation-iteration-count: infinite;
    animation-timing-function: linear;
}

@-ms-keyframes spin {
    from {
        -ms-transform: rotate(0deg);
    }
    to {
        -ms-transform: rotate(360deg);
    }
}

@-moz-keyframes spin {
    from {
        -moz-transform: rotate(0deg);
    }
    to {
        -moz-transform: rotate(360deg);
    }
}

@-webkit-keyframes spin {
    from {
        -webkit-transform: rotate(0deg);
    }
    to {
        -webkit-transform: rotate(360deg);
    }
}

@keyframes spin {
    from {
        transform: rotate(0deg);
    }
    to {
        transform: rotate(360deg);
    }
}
</style>
<path fill="#4CAF50" d="M526 1394q0 53-37.5 90.5t-90.5 37.5q-52 0-90-38t-38-90q0-53 37.5-90.5t90.5-37.5 90.5 37.5 37.5 90.5zm498 206q0 53-37.5 90.5t-90.5 37.5-90.5-37.5-37.5-90.5 37.5-90.5 90.5-37.5 90.5 37.5 37.5 90.5zm-704-704q0 53-37.5 90.5t-90.5 37.5-90.5-37.5-37.5-90.5 37.5-90.5 90.5-37.5 90.5 37.5 37.5 90.5zm1202 498q0 52-38 90t-90 38q-53 0-90.5-37.5t-37.5-90.5 37.5-90.5 90.5-37.5 90.5 37.5 37.5 90.5zm-964-996q0 66-47 113t-113 47-113-47-47-113 47-113 113-47 113 47 47 113zm1170 498q0 53-37.5 90.5t-90.5 37.5-90.5-37.5-37.5-90.5 37.5-90.5 90.5-37.5 90.5 37.5 37.5 90.5zm-640-704q0 80-56 136t-136 56-136-56-56-136 56-136 136-56 136 56 56 136zm530 206q0 93-66 158.5t-158 65.5q-93 0-158.5-65.5t-65.5-158.5q0-92 65.5-158t158.5-66q92 0 158 66t66 158z"/>
</svg>
